# Blender v2.79 (sub 0) OBJ File: ''
# www.blender.org

mtllib ddh.mtl
o Object001
v 0.577350 -0.577350 0.577350
v 0.934172 -0.356822 -0.000000
v 0.934172 0.356822 0.000000
v 0.356822 -0.000000 0.934172
v 0.577350 0.577350 0.577350
v 0.356822 0.000000 -0.934172
v 0.577350 0.577350 -0.577350
v 0.577350 -0.577350 -0.577350
v -0.577350 -0.577350 -0.577350
v -0.934172 -0.356822 -0.000000
v -0.934172 0.356822 0.000000
v -0.356822 0.000000 -0.934172
v -0.577350 0.577350 -0.577350
v -0.356822 -0.000000 0.934172
v -0.577350 0.577350 0.577350
v -0.577350 -0.577350 0.577350
v 0.000000 0.934172 -0.356822
v 0.000000 0.934172 0.356822
v 0.000000 -0.934172 -0.356822
v 0.000000 -0.934172 0.356822
vt 0.000000 0.000000
vt 1.000000 0.000000
vt 1.000000 1.000000
vt 0.000000 0.000000
vt 1.000000 0.000000
vt 0.000000 0.000000
vt 1.000000 0.000000
vt 0.000000 0.000000
vt 1.000000 0.000000
vt 0.000000 0.000000
vt 1.000000 0.000000
vt 0.000000 0.000000
vt 1.000000 0.000000
vt 0.000000 0.000000
vt 1.000000 0.000000
vt 1.000000 1.000000
vt 0.000000 0.000000
vt 1.000000 0.000000
vt 0.000000 0.000000
vt 1.000000 0.000000
vt 0.000000 0.000000
vt 1.000000 0.000000
vt 0.000000 0.000000
vt 1.000000 0.000000
vt 0.000000 0.000000
vt 1.000000 0.000000
vt 0.000000 0.000000
vt 1.000000 0.000000
vt 0.000000 0.000000
vt 1.000000 0.000000
vt 0.000000 0.000000
vt 1.000000 0.000000
vt 1.000000 0.000000
vt 0.000000 0.000000
vt 0.000000 0.000000
vt 1.000000 1.000000
vt 0.000000 0.000000
vt 1.000000 0.000000
vt 1.000000 0.000000
vt 1.000000 1.000000
vt 1.000000 1.000000
vt 1.000000 1.000000
vt 1.000000 1.000000
vt 1.000000 1.000000
vn 0.8507 -0.0000 0.5257
vn 0.8507 0.0000 -0.5257
vn -0.8507 0.0000 -0.5257
vn -0.8507 -0.0000 0.5257
vn -0.5257 0.8507 0.0000
vn 0.5257 0.8507 0.0000
vn 0.5257 -0.8507 -0.0000
vn -0.5257 -0.8507 -0.0000
vn 0.0000 -0.5257 -0.8507
vn -0.0000 0.5257 -0.8507
vn 0.0000 0.5257 0.8507
vn -0.0000 -0.5257 0.8507
s off
f 1/1/1 2/2/1 3/3/1
f 4/4/1 1/5/1 3/3/1
f 5/6/1 4/7/1 3/3/1
f 6/8/2 7/9/2 3/3/2
f 8/10/2 6/11/2 3/3/2
f 2/12/2 8/13/2 3/3/2
f 9/14/3 10/15/3 11/16/3
f 12/17/3 9/18/3 11/16/3
f 13/19/3 12/20/3 11/16/3
f 14/21/4 15/22/4 11/16/4
f 16/23/4 14/24/4 11/16/4
f 10/25/4 16/26/4 11/16/4
f 17/27/5 13/28/5 11/16/5
f 18/29/5 17/30/5 11/16/5
f 15/31/5 18/32/5 11/16/5
f 18/29/6 5/33/6 3/3/6
f 17/27/6 18/32/6 3/3/6
f 7/34/6 17/30/6 3/3/6
f 19/35/7 8/13/7 2/36/7
f 20/37/7 19/38/7 2/36/7
f 1/1/7 20/39/7 2/36/7
f 20/37/8 16/26/8 10/40/8
f 19/35/8 20/39/8 10/40/8
f 9/14/8 19/38/8 10/40/8
f 9/14/9 12/20/9 6/41/9
f 19/35/9 9/18/9 6/41/9
f 8/10/9 19/38/9 6/41/9
f 12/17/10 13/28/10 17/42/10
f 6/8/10 12/20/10 17/42/10
f 7/34/10 6/11/10 17/42/10
f 4/4/11 5/33/11 18/43/11
f 14/21/11 4/7/11 18/43/11
f 15/31/11 14/24/11 18/43/11
f 14/21/12 16/26/12 20/44/12
f 4/4/12 14/24/12 20/44/12
f 1/1/12 4/7/12 20/44/12
